# xmcd CD database file
#
# Track frame offsets:
#	182
#	59250
#	100537
#	136790
#	199940
#	234735
#	253417
#
# Disc length: 3644 seconds
#
# Revision: 2
# Processed by: cddbd v1.5.1PL2 Copyright (c) Steve Scherf et al.
# Submitted via: CDex 1.51
#
DISCID=5f0e3a07
DTITLE=Beneath The Waves - Humpback Whales
DYEAR=1989
DGENRE=New Age
TTITLE0=Beneath The waves
TTITLE1=Leviathan
TTITLE2=Interlude From The depths
TTITLE3=Soothing Words
TTITLE4=Tranquility
TTITLE5=Playful
TTITLE6=Contemplation
EXTD=YEAR: 1989
EXTT0=
EXTT1=
EXTT2=
EXTT3=
EXTT4=
EXTT5=
EXTT6=
PLAYORDER=
